<svg width="23" height="19" viewBox="0 0 23 19" fill="none" xmlns="http://www.w3.org/2000/svg">
<path d="M15.3496 11.7088C15.3496 11.4115 15.2181 11.2486 15.0197 11.1323C14.8178 11.0202 14.5742 11.0049 14.2407 11.0049H12.7624V13.6227H13.4099V12.6695H14.1027C14.3305 12.6695 14.4735 12.6918 14.5591 12.7858C14.6748 12.9056 14.6604 13.1374 14.6604 13.2975V13.6206H15.2893V13.1054C15.2893 12.8735 15.2749 12.7573 15.1886 12.6264C15.104 12.5282 14.9942 12.4533 14.8703 12.4092L14.8882 12.4015C15.0643 12.3368 15.3496 12.1258 15.3496 11.7088ZM14.5145 12.0854L14.4879 12.0819C14.4017 12.1328 14.3011 12.1369 14.1695 12.1369H13.3955V11.5528H14.1854C14.3011 11.5528 14.4132 11.5528 14.5037 11.6002C14.5488 11.6215 14.5864 11.6553 14.6116 11.6973C14.6368 11.7393 14.6485 11.7877 14.6453 11.8362C14.6453 11.9483 14.6 12.0346 14.5181 12.0861L14.5145 12.0854ZM19.4519 13.0615H18.2093V13.6206H19.4598C20.1066 13.6206 20.4659 13.3623 20.4659 12.8011C20.4659 12.5394 20.4027 12.3834 20.287 12.2609C20.1411 12.1376 19.9082 12.0792 19.5877 12.0687L19.2276 12.0541C19.127 12.0541 19.0559 12.0541 18.9811 12.0255C18.9385 12.0126 18.9014 11.9865 18.8755 11.9511C18.8497 11.9158 18.8365 11.8732 18.8381 11.8299C18.8381 11.7464 18.8532 11.6774 18.9244 11.6377C19.0043 11.5946 19.0953 11.5743 19.1867 11.5793H20.3617V11.0216H19.0702C18.3968 11.0216 18.1532 11.4275 18.1532 11.8014C18.1532 12.6389 18.8949 12.595 19.5015 12.6097C19.5985 12.6097 19.6732 12.6236 19.7142 12.6633C19.7595 12.6932 19.7925 12.7614 19.7925 12.8304C19.7925 12.9028 19.7587 12.9717 19.7178 12.9975C19.6624 13.0476 19.5762 13.0622 19.4526 13.0622L19.4519 13.0615ZM0.00215605 0.5V7.73473L0.777615 5.9907H2.4543L2.67062 6.42236V5.9907H4.62832L5.05881 6.93686L5.47852 5.99836H11.7109C11.9919 5.99836 12.2456 6.05197 12.4332 6.21906V6.00462H14.1473V6.21906C14.4383 6.05962 14.802 6.00462 15.2174 6.00462H17.7134L17.9462 6.43628V6.00462H19.7839L20.0261 6.43628V6.00114H21.8084V9.66814H20.0002L19.656 9.10907V9.65282H17.3986L17.155 9.06869H16.5937L16.3357 9.6375H15.175C14.7143 9.6375 14.3701 9.54351 14.1379 9.4168V9.6375H11.3674V8.81875C11.3674 8.70666 11.3415 8.70666 11.2704 8.69134H11.169V9.65212H5.81271V9.21002L5.61076 9.65212H4.49536L4.3006 9.21002V9.64098H2.14096L1.89732 9.06103H1.33962L1.09743 9.64098H0V18.5H11.3958H22.7916V14.0397C22.5336 14.1657 22.2044 14.2061 21.8595 14.2061H20.2094V13.9701C20.0074 14.1226 19.6632 14.2061 19.3333 14.2061H14.0962V13.3727C14.0962 13.2606 14.0768 13.2606 13.9805 13.2606H13.9094V14.2103H12.1838V13.221C11.8992 13.3484 11.5658 13.3581 11.2927 13.3484H11.0907V14.1971H9.00294L8.48261 13.6234L7.93569 14.1824H4.54423V10.5342H8.00325L8.50058 11.0933L9.0324 10.5342H11.3415C11.611 10.5342 12.0487 10.5642 12.2435 10.7452V10.5203H14.3284C14.5231 10.5203 14.9464 10.5642 15.1965 10.7299V10.5092H18.3221V10.7299C18.4795 10.5774 18.813 10.5092 19.0932 10.5092H20.9043V10.7299C21.0919 10.5927 21.3499 10.5092 21.7092 10.5092H22.8361V0.500696L11.4191 0.500348L0.00215605 0.5ZM20.2748 12.2414C20.2784 12.249 20.2784 12.256 20.2827 12.2602C20.2942 12.2664 20.3085 12.2664 20.3164 12.2776L20.2755 12.2449L20.2748 12.2414ZM22.8354 10.505H22.8994V11.0202H22.8354V10.505ZM22.8685 12.3138V12.3061C22.8426 12.2845 22.8275 12.2636 22.7973 12.2414C22.6558 12.1 22.4229 12.0416 22.0672 12.0346L21.7193 12.0241C21.6072 12.0241 21.536 12.0165 21.4613 11.9956C21.4187 11.9826 21.3817 11.9564 21.3558 11.9211C21.33 11.8858 21.3168 11.8432 21.3183 11.8C21.3183 11.7164 21.3478 11.6503 21.4045 11.6106C21.4757 11.5709 21.5461 11.5639 21.6625 11.5639H22.8347L22.8354 11.0202H21.6072C20.9439 11.0202 20.6866 11.4261 20.6866 11.8C20.6866 12.6333 21.4347 12.5937 22.0377 12.6083C22.139 12.6083 22.2102 12.6187 22.2511 12.6619C22.2964 12.6918 22.3259 12.7601 22.3259 12.829C22.3253 12.8613 22.3173 12.8931 22.3024 12.922C22.2875 12.951 22.266 12.9763 22.2396 12.9961C22.1944 13.0462 22.1081 13.0608 21.9816 13.0608H20.7455V13.6227H21.978C22.3812 13.6227 22.6816 13.5141 22.8426 13.2892H22.8685C22.9547 13.1618 23 13.01 23 12.8039C23 12.5783 22.9547 12.4412 22.8685 12.3138ZM17.8233 11.5493V11.0091H15.6817V13.638H17.8233V13.0942H16.3177V12.5686H17.786V12.0248H16.3177V11.5535L17.8233 11.5493ZM12.9499 6.51565H13.6047V9.13065H12.9499V6.51565ZM12.5791 7.21953L12.5712 7.22719C12.5712 6.93269 12.4476 6.76281 12.2456 6.64724C12.0394 6.53097 11.7972 6.51983 11.4716 6.51983H9.99688V9.13762H10.6437V8.17683H11.3329C11.5607 8.17683 11.7073 8.20538 11.8008 8.28892C11.9179 8.41633 11.9021 8.64052 11.9021 8.79647V9.12717H12.5496V8.61545C12.5496 8.38361 12.5345 8.26734 12.444 8.13297C12.3597 8.03622 12.2517 7.96152 12.1299 7.91575C12.2684 7.85647 12.3854 7.75859 12.4662 7.63459C12.547 7.51059 12.5878 7.36609 12.5834 7.21953H12.5791ZM11.7598 7.58644H11.7483C11.6585 7.63657 11.5607 7.64005 11.4299 7.64005H10.6401V7.06009H11.4299C11.5456 7.06009 11.6578 7.06357 11.744 7.10744C11.8302 7.14364 11.8899 7.22719 11.8899 7.33928C11.8899 7.45137 11.8446 7.54258 11.7598 7.58644ZM15.2591 7.06009H15.862V6.50521H15.244C14.802 6.50521 14.4764 6.60337 14.2673 6.81085C13.9942 7.08934 13.9223 7.45207 13.9223 7.84404C13.9223 8.31956 14.038 8.61615 14.2673 8.83755C14.4879 9.05825 14.8846 9.12787 15.1951 9.12787H15.9447L16.1883 8.54374H17.52L17.7709 9.12787H19.0731V7.1694L20.2942 9.12787H21.2076V6.51635H20.5486V8.34044L19.4188 6.51983H18.4414V8.94198L17.3555 6.47666H16.3932L15.4912 8.54026H15.203C15.0356 8.54026 14.8552 8.51171 14.7546 8.41285C14.6345 8.2757 14.5785 8.07936 14.5785 7.80018C14.5785 7.53561 14.6532 7.32466 14.7617 7.21605C14.8889 7.08864 15.0241 7.06009 15.2562 7.06009H15.2591ZM16.8574 6.96262L17.2994 7.9993V8.00278H16.4082L16.8574 6.96262ZM2.28182 8.54305L2.52545 9.12717H3.83561V7.08237L4.76774 9.12717H5.32544L6.25685 7.08237L6.27194 9.12717H6.93385V6.51983H5.86373L5.09259 8.28544L4.25101 6.51635H3.20676V8.98932L2.11365 6.51635H1.15924L0.0143737 9.12787H0.702153L0.94938 8.54792H2.28254L2.28182 8.54305ZM1.62279 6.96262L2.06478 7.9993L2.06118 8.00278H1.18511L1.62279 6.96262ZM11.3624 11.0049H9.31197L8.49555 11.8605L7.70572 11.0049H5.12708V13.6227H7.66834L8.48764 12.7566L9.27819 13.6199H10.5237V12.7489H11.3286C11.9014 12.7489 12.4476 12.5964 12.4476 11.8717L12.444 11.8682C12.444 11.1434 11.8719 11.0049 11.3624 11.0049ZM7.35356 13.0761H5.7703V12.5575H7.17677V12.0248H5.7703V11.5535H7.37943L8.08374 12.3145L7.34997 13.0796L7.35356 13.0761ZM9.88332 13.3846L8.89513 12.318L9.88332 11.2924V13.3846ZM11.3696 12.2163H10.5237V11.5486H11.3696C11.6017 11.5486 11.7742 11.6398 11.7742 11.8682C11.7742 12.0966 11.6326 12.2163 11.3696 12.2163ZM9.55489 7.06009V6.51635H7.40962V9.13135H9.55489V8.59108H8.04925V8.06822H9.5132V7.53144H8.04925V7.06009H9.55489Z" fill="#255FC6"/>
</svg>
