<svg width="47" height="44" viewBox="0 0 47 44" fill="none" xmlns="http://www.w3.org/2000/svg">
<path d="M28.9211 18.461C34.0493 14.2532 35.0125 7.44805 35.0385 3.05844C35.0385 0.902594 32.5134 -0.292211 30.8474 1.08441C26.4871 4.70779 24.2484 10.8896 23.1291 15.526C22.0487 8.9935 16.6212 4.75974 12.8206 2.53896C10.9463 1.44805 8.6555 3.04545 9.01994 5.17532C9.98311 10.7597 14.2263 15.7857 17.7015 19.0714C11.4929 16.7467 5.10219 19.3052 1.27555 21.487C-0.611741 22.5519 -0.377457 25.3442 1.66602 26.0974C6.98948 28.0584 13.4713 26.9026 18.0659 25.539C12.9377 29.7467 11.9745 36.5519 11.9485 40.9416C11.9485 43.0974 14.4736 44.2922 16.1396 42.9156C20.4999 39.2922 22.7386 33.1104 23.8579 28.474C24.9382 35.0065 30.3658 39.2532 34.1664 41.461C36.0407 42.5519 38.3315 40.9545 37.967 38.8247C37.0039 33.2403 32.7607 28.2143 29.2855 24.9286C35.494 27.2532 41.8848 24.6948 45.7114 22.513C47.5987 21.448 47.3644 18.6558 45.321 17.9026C39.9975 15.9416 33.5156 17.0974 28.9211 18.461Z" fill="#FF6631"/>
<path d="M18.2221 25.487C18.5865 25.1623 19.0161 24.9026 19.4716 24.7208" stroke="#301225" stroke-width="0.25" stroke-linecap="round" stroke-linejoin="round"/>
<path d="M17.8316 19.1104C18.3132 19.2273 18.7558 19.4351 19.1592 19.7208" stroke="#301225" stroke-width="0.25" stroke-linecap="round" stroke-linejoin="round"/>
<path d="M23.1551 15.5909C23.2332 16.0065 23.2722 16.4221 23.2722 16.8506" stroke="#301225" stroke-width="0.25" stroke-linecap="round" stroke-linejoin="round"/>
<path d="M27.2551 19.1104C27.7236 19.0454 28.1792 18.8896 28.5827 18.6428" stroke="#301225" stroke-width="0.25" stroke-linecap="round" stroke-linejoin="round"/>
<path d="M27.6585 23.7468C28.2052 23.9935 28.7128 24.3442 29.1293 24.7727" stroke="#301225" stroke-width="0.25" stroke-linecap="round" stroke-linejoin="round"/>
<path d="M23.5325 26.5519C23.5455 27.1104 23.6757 27.6818 23.884 28.2013" stroke="#301225" stroke-width="0.25" stroke-linecap="round" stroke-linejoin="round"/>
<path d="M26.8906 18.9675C28.3874 21.1104 27.9449 24.0065 25.8884 25.4221C23.8319 26.8376 20.9684 26.2532 19.4716 24.1104C17.9748 21.9675 18.99 19.474 21.0335 18.0584C23.077 16.6428 25.3938 16.8247 26.8906 18.9675Z" fill="#FEBC56"/>
<g style="mix-blend-mode:soft-light" opacity="0.5">
<path d="M21.2288 19.6299C21.6583 19.8377 21.5411 20.487 21.1507 21.3312C20.7602 22.1754 20.2265 22.8766 19.797 22.6689C19.3675 22.4611 19.1723 21.539 19.5627 20.6948C19.9532 19.8507 20.7992 19.4221 21.2288 19.6299Z" fill="white"/>
</g>
<path d="M26.8906 18.9675C28.3874 21.1104 27.9449 24.0065 25.8884 25.4221C23.8319 26.8377 20.9684 26.2532 19.4716 24.1104" stroke="#301225" stroke-width="0.25" stroke-linecap="round" stroke-linejoin="round"/>
</svg>
