<svg width="15" height="16" viewBox="0 0 15 16" fill="none" xmlns="http://www.w3.org/2000/svg">
<path fill-rule="evenodd" clip-rule="evenodd" d="M2.75 4.83334C2.75 3.57357 3.25045 2.36538 4.14124 1.47459C5.03204 0.583788 6.24022 0.0833435 7.5 0.0833435C8.75978 0.0833435 9.96796 0.583788 10.8588 1.47459C11.7496 2.36538 12.25 3.57357 12.25 4.83334H13.0417C13.4616 4.83334 13.8643 5.00016 14.1613 5.29709C14.4582 5.59402 14.625 5.99675 14.625 6.41668V14.3333C14.625 14.7533 14.4582 15.156 14.1613 15.4529C13.8643 15.7499 13.4616 15.9167 13.0417 15.9167H1.95833C1.53841 15.9167 1.13568 15.7499 0.838748 15.4529C0.541815 15.156 0.375 14.7533 0.375 14.3333V6.41668C0.375 5.99675 0.541815 5.59402 0.838748 5.29709C1.13568 5.00016 1.53841 4.83334 1.95833 4.83334H2.75ZM7.5 1.66668C8.33985 1.66668 9.14531 2.00031 9.73917 2.59417C10.333 3.18804 10.6667 3.99349 10.6667 4.83334H4.33333C4.33333 3.99349 4.66696 3.18804 5.26083 2.59417C5.85469 2.00031 6.66015 1.66668 7.5 1.66668ZM9.08333 9.58334C9.08333 9.86127 9.01016 10.1343 8.8712 10.375C8.73223 10.6157 8.53236 10.8155 8.29167 10.9545V11.9583C8.29167 12.1683 8.20826 12.3697 8.05979 12.5181C7.91133 12.6666 7.70996 12.75 7.5 12.75C7.29004 12.75 7.08867 12.6666 6.94021 12.5181C6.79174 12.3697 6.70833 12.1683 6.70833 11.9583V10.9545C6.4065 10.7802 6.17061 10.5112 6.03724 10.1892C5.90388 9.86721 5.88048 9.5102 5.97069 9.17354C6.0609 8.83688 6.25967 8.5394 6.53617 8.32722C6.81268 8.11504 7.15147 8.00003 7.5 8.00001C7.91993 8.00001 8.32265 8.16683 8.61959 8.46376C8.91652 8.76069 9.08333 9.16342 9.08333 9.58334Z" fill="#A6A6A6"/>
</svg>
