<svg width="160" height="43" viewBox="0 0 160 43" fill="none" xmlns="http://www.w3.org/2000/svg">
<path d="M64.8141 6.67744H71.4241C74.2013 6.67744 75.9919 8.31093 75.9919 10.8688C75.9919 14.2336 73.4317 16.5566 69.7173 16.5566H66.363L65.6872 20.4545H62.3724L64.8141 6.67255V6.67744ZM70.2156 13.7054C71.5869 13.7054 72.7165 12.6441 72.7165 11.2062C72.7165 10.1841 72.0012 9.55316 70.9111 9.55316H67.5568L66.8218 13.7054H70.2156Z" fill="white"/>
<path d="M76.1299 15.5147C76.6676 12.502 78.7887 10.5359 81.5708 10.5359C82.9619 10.5359 84.0126 10.9908 84.6884 11.876L85.0633 10.7365H87.8454L86.1189 20.4592H83.3368V19.3783C82.4045 20.2048 81.2897 20.6597 80.0614 20.6597C77.3237 20.6597 75.5923 18.4735 76.1299 15.5196V15.5147ZM81.0923 18.0334C82.4834 18.0334 83.5933 17.0308 83.8744 15.5734C84.1556 14.1159 83.3762 13.1329 81.9901 13.1329C80.604 13.1329 79.4497 14.1551 79.1883 15.6125C78.9515 17.0699 79.726 18.0334 81.0923 18.0334Z" fill="white"/>
<path d="M90.1145 10.7321H92.9755L92.8177 12.0721C93.5527 11.05 94.5047 10.5169 95.6787 10.5169C96.6702 10.5169 97.563 10.869 98.081 11.4999L96.3742 13.8426C95.9352 13.4464 95.4222 13.2508 94.8648 13.2508C93.6119 13.2508 92.6598 14.1947 92.4033 15.6913L91.55 20.4548H88.3929L90.1194 10.7321H90.1145Z" fill="white"/>
<path d="M97.7011 15.5348C98.2586 12.3656 100.562 10.5169 103.818 10.5169C107.493 10.5169 109.14 13.0943 107.907 16.5227H100.74C100.779 17.5253 101.652 18.1757 103.004 18.1757C103.936 18.1757 104.933 17.8627 105.702 17.3101L107.054 19.1783C105.801 20.2005 104.356 20.6944 102.466 20.6944C99.0725 20.6944 97.1635 18.5865 97.7011 15.5348ZM105.367 14.7474C105.584 13.6274 104.908 12.9574 103.542 12.9574C102.289 12.9574 101.416 13.6078 101.021 14.7474H105.367Z" fill="white"/>
<path d="M110.724 10.7319H113.481V11.8323C114.453 10.908 115.667 10.5118 116.796 10.5118C119.534 10.5118 120.511 12.3996 120.032 15.0406L119.08 20.4546H115.903L116.855 15.1384C117.053 13.9744 116.638 13.1284 115.504 13.1284C114.369 13.1284 113.319 13.9158 113.062 15.3536L112.149 20.4546H108.992L110.719 10.7319H110.724Z" fill="white"/>
<path d="M122.72 17.1677L123.416 13.1916H121.749L122.183 10.7315H123.85L124.289 8.31066L127.486 7.97809L126.987 10.7364H129.39L128.951 13.1965H126.548L125.912 16.7618C125.754 17.5883 126.011 17.9844 126.746 17.9844C127.14 17.9844 127.54 17.8866 127.959 17.7106L128.255 20.0728C127.421 20.464 126.568 20.6645 125.577 20.6645C123.332 20.6645 122.321 19.4419 122.715 17.1824L122.72 17.1677Z" fill="white"/>
<path d="M131.259 10.7319H134.416L132.69 20.4546H129.533L131.259 10.7319ZM133.563 6.39874C134.673 6.39874 135.309 7.10789 135.112 8.16917C134.954 9.07395 134.081 9.76354 133.065 9.76354C131.955 9.76354 131.318 9.05439 131.496 8.01267C131.634 7.08833 132.527 6.39874 133.563 6.39874Z" fill="white"/>
<path d="M136.7 10.7319H139.458V11.8323C140.429 10.908 141.643 10.5118 142.772 10.5118C145.51 10.5118 146.487 12.3996 146.008 15.0406L145.056 20.4546H141.88L142.832 15.1384C143.029 13.9744 142.615 13.1284 141.48 13.1284C140.345 13.1284 139.295 13.9158 139.038 15.3536L138.126 20.4546H134.969L136.695 10.7319H136.7Z" fill="white"/>
<path d="M146.709 23.9805L148.218 21.7552C149.15 22.347 150.344 22.6991 151.434 22.6991C153.181 22.6991 154.216 21.8921 154.493 20.2978L154.651 19.4517C153.738 20.1608 152.687 20.5325 151.553 20.5325C148.874 20.5325 147.064 18.4442 147.582 15.4951C148.1 12.5216 150.3 10.5359 153.023 10.5359C154.335 10.5359 155.445 10.9712 156.14 11.876L156.515 10.7365H159.297L157.531 20.6401C156.974 23.731 154.912 25.2863 151.296 25.2863C149.511 25.2863 148.021 24.851 146.709 23.9854V23.9805ZM152.564 17.9943C154.073 17.9943 155.242 16.8303 155.346 15.2359C155.464 13.9741 154.69 13.128 153.422 13.128C152.051 13.128 150.921 14.111 150.64 15.5685C150.384 17.0455 151.119 17.9894 152.564 17.9894V17.9943Z" fill="white"/>
<path d="M61.6126 23.9418H64.9275L63.0037 34.8089H69.8751L69.3572 37.7237H59.1709L61.6126 23.9418Z" fill="white"/>
<path d="M70.9504 32.7991C71.5078 29.6299 73.8114 27.7812 77.0671 27.7812C80.7421 27.7812 82.3896 30.3586 81.1564 33.787H73.989C74.0285 34.7896 74.9016 35.4401 76.2532 35.4401C77.1855 35.4401 78.177 35.1271 78.9514 34.5744L80.303 36.4427C79.0501 37.4648 77.6048 37.9588 75.7155 37.9588C72.3217 37.9588 70.4127 35.8509 70.9504 32.7991ZM78.616 32.0117C78.8331 30.8917 78.1573 30.2217 76.7909 30.2217C75.5379 30.2217 74.6648 30.8722 74.2702 32.0117H78.6209H78.616Z" fill="white"/>
<path d="M82.587 32.779C83.1247 29.7663 85.2458 27.8002 88.0279 27.8002C89.419 27.8002 90.4697 28.2551 91.1455 29.1403L91.5204 28.0008H94.3025L92.576 37.7234H89.7939V36.6426C88.8616 37.4691 87.7467 37.924 86.5185 37.924C83.7808 37.924 82.0493 35.7378 82.587 32.7838V32.779ZM87.5494 35.2977C88.9405 35.2977 90.0504 34.2951 90.3315 32.8376C90.6127 31.3802 89.8333 30.3972 88.4472 30.3972C87.0611 30.3972 85.9068 31.4193 85.6454 32.8768C85.4086 34.3342 86.1831 35.2977 87.5494 35.2977Z" fill="white"/>
<path d="M95.1755 32.7795C95.7132 29.7669 97.854 27.8008 100.676 27.8008C101.968 27.8008 102.959 28.2116 103.556 28.9648L104.429 23.947H107.606L105.164 37.7289H102.382V36.6481C101.45 37.4746 100.335 37.9294 99.1069 37.9294C96.389 37.9294 94.6378 35.7824 95.1755 32.7893V32.7795ZM100.138 35.2983C101.529 35.2983 102.639 34.2957 102.92 32.8382C103.201 31.3808 102.402 30.3978 101.036 30.3978C99.6693 30.3978 98.4953 31.4199 98.2338 32.8774C97.997 34.3348 98.7715 35.2983 100.138 35.2983Z" fill="white"/>
<path d="M107.764 32.7991C108.321 29.6299 110.625 27.7812 113.881 27.7812C117.556 27.7812 119.203 30.3586 117.97 33.787H110.803C110.842 34.7896 111.715 35.4401 113.067 35.4401C113.999 35.4401 114.996 35.1271 115.765 34.5744L117.117 36.4427C115.864 37.4648 114.418 37.9588 112.529 37.9588C109.135 37.9588 107.226 35.8509 107.764 32.7991ZM115.43 32.0117C115.647 30.8917 114.971 30.2217 113.604 30.2217C112.352 30.2217 111.478 30.8722 111.084 32.0117H115.43Z" fill="white"/>
<path d="M120.792 27.9964H123.653L123.495 29.3365C124.23 28.3143 125.182 27.7812 126.356 27.7812C127.347 27.7812 128.24 28.1334 128.758 28.7643L127.051 31.1069C126.612 30.7157 126.099 30.5151 125.542 30.5151C124.289 30.5151 123.337 31.4591 123.08 32.9556L122.227 37.7191H119.07L120.797 27.9964H120.792Z" fill="white"/>
<path d="M30.4274 10.4504C33.314 10.4504 35.654 8.1304 35.654 5.26849C35.654 2.40658 33.314 0.0865479 30.4274 0.0865479C27.5409 0.0865479 25.2009 2.40658 25.2009 5.26849C25.2009 8.1304 27.5409 10.4504 30.4274 10.4504Z" fill="#0EA8B3"/>
<path d="M13.3075 25.3056C15.2012 25.3056 16.7364 23.7835 16.7364 21.9059C16.7364 20.0283 15.2012 18.5062 13.3075 18.5062C11.4137 18.5062 9.87854 20.0283 9.87854 21.9059C9.87854 23.7835 11.4137 25.3056 13.3075 25.3056Z" fill="#0EA8B3"/>
<path d="M14.4751 29.7473C11.9874 28.3545 7.74814 23.9163 7.74814 20.0536C7.74814 16.6644 10.6144 15.1207 12.6987 15.1207C15.1121 15.1207 16.0887 16.5416 17.9005 16.5416C19.5106 16.5416 21.3401 15.5698 21.3401 13.0192C21.3401 10.7387 18.1022 7.33551 12.5465 7.33551C4.02549 7.332 0.815938 14.4471 0.70624 18.4081C0.571772 23.3936 4.35104 29.3298 8.81681 33.8522C10.8232 33.1891 12.7872 31.4384 14.4716 29.7473H14.4751Z" fill="#FF6631"/>
<path d="M35.0065 17.2676C37.5154 17.2711 38.5734 18.7096 38.8672 19.4639C38.8813 19.4955 38.9096 19.513 38.9379 19.513C38.9733 19.513 39.0122 19.4884 39.0122 19.4428C39.083 17.864 38.669 12.1699 32.6674 12.1699C25.8308 12.1699 23.7642 18.8815 19.7514 24.7441C15.8518 30.4417 10.8128 35.5079 7.25999 35.5079C4.67678 35.5079 3.74965 34.3431 3.43825 33.7256C3.43117 33.7116 3.42056 33.7046 3.4064 33.7046C3.38517 33.7046 3.36394 33.7221 3.37102 33.7502C3.66826 35.0694 4.9811 39.2198 9.74058 39.2198C23.1096 39.2198 27.869 17.2571 35.0065 17.2676Z" fill="#0EA8B3"/>
<path d="M13.6578 39.8049C16.0747 41.5381 18.481 42.9134 20.0805 42.9134C25.8662 42.9134 38.0709 30.7637 39.0158 21.8242C38.9874 21.7049 38.2797 18.7509 35.3993 18.7509C32.5188 18.7509 29.9108 22.6242 26.9454 27.1114C23.6014 32.1636 19.4364 37.9244 13.6578 39.8049Z" fill="#FF6631"/>
<path d="M3.62939 32.5187C4.05757 33.8063 5.17224 34.2834 6.08875 34.3852C6.23029 34.4027 6.3683 34.4062 6.50277 34.4062C7.22819 34.4062 7.77668 34.2062 7.77668 34.2062C5.55441 32.038 4.27696 29.933 4.27696 29.933C4.27696 29.933 3.21183 31.2627 3.62939 32.5187Z" fill="#0EA8B3"/>
</svg>
