<svg width="34" height="11" viewBox="0 0 34 11" fill="none" xmlns="http://www.w3.org/2000/svg">
<path fill-rule="evenodd" clip-rule="evenodd" d="M8.50036 10.9192H5.55787L3.35136 2.37805C3.24663 1.98515 3.02426 1.63781 2.69716 1.47411C1.88084 1.06271 0.981307 0.735301 0 0.570172V0.241339H4.74011C5.39432 0.241339 5.88497 0.735301 5.96675 1.30898L7.11161 7.46999L10.0527 0.241339H12.9134L8.50036 10.9192ZM14.5489 10.9192H11.77L14.0582 0.241339H16.8372L14.5489 10.9192ZM20.4324 3.19941C20.5142 2.6243 21.0049 2.29547 21.5773 2.29547C22.4768 2.21291 23.4567 2.37803 24.2744 2.78801L24.7651 0.489019C23.9473 0.160185 23.0478 -0.00494385 22.2315 -0.00494385C19.5343 -0.00494385 17.5717 1.4741 17.5717 3.52682C17.5717 5.08842 18.9619 5.90837 19.9432 6.40234C21.0049 6.89487 21.4137 7.22371 21.332 7.71625C21.332 8.45506 20.5142 8.78389 19.6979 8.78389C18.7166 8.78389 17.7353 8.53762 16.8372 8.12622L16.3465 10.4266C17.3278 10.8366 18.3895 11.0017 19.3708 11.0017C22.395 11.0829 24.2744 9.60526 24.2744 7.38741C24.2744 4.59446 20.4324 4.43076 20.4324 3.19941ZM34 10.9192L31.7935 0.241339H29.4234C28.9328 0.241339 28.4421 0.570172 28.2786 1.06271L24.1927 10.9192H27.0534L27.6244 9.35901H31.1393L31.4664 10.9192H34ZM29.8323 3.11688L30.6486 7.14118H28.3604L29.8323 3.11688Z" fill="#1A1F71"/>
</svg>
